<svg width="147" height="142" viewBox="0 0 147 142" fill="none" xmlns="http://www.w3.org/2000/svg">
<g clip-path="url(#clip0_1_17)">
<path d="M130.543 125.53C130.543 125.53 130.656 123.194 132.959 123.466L130.543 125.53Z" fill="#3F3D56"/>
<path d="M129.892 123.307C130.529 123.307 131.045 122.795 131.045 122.163C131.045 121.531 130.529 121.019 129.892 121.019C129.256 121.019 128.739 121.531 128.739 122.163C128.739 122.795 129.256 123.307 129.892 123.307Z" fill="#50C2A0"/>
<path d="M130.03 124.089H129.705V126.35H130.03V124.089Z" fill="#3F3D56"/>
<path d="M52.2745 56.8419C52.2745 57.414 52.2558 57.9814 52.2184 58.544C52.0089 61.7886 51.1829 64.9646 49.7839 67.9046C49.773 67.9297 49.7603 67.953 49.7495 67.9764C49.6844 68.1127 49.6175 68.249 49.5488 68.3835C49.1327 69.215 48.6712 70.0233 48.1662 70.8048C45.8593 74.3924 42.6975 77.3609 38.9601 79.448C35.2227 81.5351 31.0248 82.6766 26.7373 82.7715L26.9958 97.5219L30.3666 95.7606L30.9685 96.8959L27.0211 98.9585L27.5037 126.354L27.509 126.719L24.9027 127.295L24.9081 126.927L25.7287 82.7733C22.2777 82.7242 18.8709 81.9952 15.7061 80.6288C12.5413 79.2624 9.68154 77.2857 7.29292 74.8135C7.1285 74.6449 6.96577 74.4709 6.80673 74.2987C6.7995 74.2915 6.79411 74.2844 6.78864 74.279C4.79849 72.1253 3.18896 69.6537 2.02789 66.9684C2.05322 66.9971 2.08031 67.024 2.10565 67.0527C-0.51842 60.9635 -0.696392 54.109 1.6082 47.8938C3.91279 41.6786 8.52544 36.5733 14.5009 33.6241C14.5913 33.5792 14.6835 33.5362 14.7739 33.4914C20.6847 30.6661 27.4495 30.1477 33.7274 32.0389C40.0053 33.9301 45.3381 38.0929 48.6686 43.7022C48.8277 43.9676 48.9814 44.2384 49.1295 44.5111C51.1984 48.2965 52.2796 52.5356 52.2745 56.8419Z" fill="#E5E5E5"/>
<path d="M48.7561 67.9905C67.6762 67.9905 83.014 52.7703 83.014 33.9953C83.014 15.2202 67.6762 -1.90735e-06 48.7561 -1.90735e-06C29.836 -1.90735e-06 14.4982 15.2202 14.4982 33.9953C14.4982 52.7703 29.836 67.9905 48.7561 67.9905Z" fill="#50C2A0"/>
<path opacity="0.2" d="M23.4612 11.2891C16.0233 28.5541 24.098 48.5335 41.4964 55.9144C48.0973 58.7146 55.418 59.3866 62.4245 57.8353C69.4311 56.2839 75.7696 52.5878 80.545 47.2687C73.1079 64.5342 52.9744 72.548 35.5754 65.168C18.1765 57.788 10.1008 37.8088 17.5378 20.5433C18.9948 17.1609 20.9952 14.0355 23.4612 11.2891Z" fill="black"/>
<path d="M50.6098 128.7L47.1107 127.726L47.1179 127.353L48.1662 70.8048L48.2186 67.9853L48.2204 67.9028L48.403 58.0238L48.6687 43.704V43.7022L48.8494 33.9954H48.9452L49.1296 44.5111L49.3699 58.1978L49.5417 67.91V67.9818L49.5489 68.3817V68.3835L49.8814 87.3147L49.9158 89.1961L50.6026 128.323L50.6098 128.7Z" fill="#3F3D56"/>
<path d="M54.2988 85.0065L48.6358 87.9651L49.425 89.4526L55.088 86.4941L54.2988 85.0065Z" fill="#3F3D56"/>
<path d="M48.0849 135.543H31.9316V135.902H48.0849V135.543Z" fill="#CBCBCB"/>
<path d="M77.7268 141.641H61.5734V142H77.7268V141.641Z" fill="#CBCBCB"/>
<path d="M123.816 136.978H107.663V137.337H123.816V136.978Z" fill="#CBCBCB"/>
<path d="M116.438 122.383V111.949C116.438 111.949 120.536 119.346 116.438 122.383Z" fill="#F1F1F1"/>
<path d="M116.691 122.381L108.946 115.325C108.946 115.325 117.208 117.332 116.691 122.381Z" fill="#F1F1F1"/>
<path d="M36.3691 124.894V114.46C36.3691 114.46 40.4667 121.857 36.3691 124.894Z" fill="#F1F1F1"/>
<path d="M36.6222 124.892L28.8766 117.836C28.8766 117.836 37.139 119.843 36.6222 124.892Z" fill="#F1F1F1"/>
<path d="M64.2035 132.427V119.452C64.2035 119.452 69.2989 128.65 64.2035 132.427Z" fill="#F1F1F1"/>
<path d="M64.5182 132.424L54.8865 123.65C54.8865 123.65 65.1609 126.146 64.5182 132.424Z" fill="#F1F1F1"/>
<path d="M147 130.839L146.901 131.185L116.567 122.612L93.7152 127.611L64.4909 132.565L64.4511 132.554L50.6098 128.7L47.1107 127.726L36.4233 124.748L27.5091 126.719L24.9028 127.295L19.2365 128.549L19.1588 128.199L24.9082 126.927L27.5037 126.354L36.4342 124.379L36.4775 124.39L47.1179 127.353L50.6026 128.323L64.509 132.197L93.6447 127.259L116.577 122.243L116.623 122.253L147 130.839Z" fill="#CBCBCB"/>
<path d="M92.7304 21.7806L95.043 19.9451C93.2465 19.7485 92.5083 20.7207 92.2062 21.4903C90.8027 20.912 89.2747 21.6699 89.2747 21.6699L93.9018 23.3368C93.6684 22.7181 93.262 22.1783 92.7304 21.7806Z" fill="#3F3D56"/>
<path d="M7.78121 21.0631L10.0938 19.2277C8.29725 19.031 7.55909 20.0033 7.25698 20.7729C5.85346 20.1945 4.32555 20.9525 4.32555 20.9525L8.95258 22.6194C8.71916 22.0007 8.31282 21.4608 7.78121 21.0631Z" fill="#3F3D56"/>
<path d="M87.6696 56.0378L89.9822 54.2024C88.1856 54.0057 87.4475 54.978 87.1454 55.7475C85.7419 55.1692 84.2139 55.9271 84.2139 55.9271L88.841 57.594C88.6076 56.9753 88.2012 56.4355 87.6696 56.0378Z" fill="#3F3D56"/>
<path d="M71.9639 134.98L73.7314 135.632L77.1053 129.177L74.4967 128.215L71.9639 134.98Z" fill="#FFB7B7"/>
<path d="M71.7274 134.241L75.2082 135.525L75.2083 135.525C75.7966 135.742 76.274 136.182 76.5354 136.748C76.7968 137.314 76.8209 137.96 76.6023 138.544L76.5755 138.615L70.8764 136.514L71.7274 134.241Z" fill="#2F2E41"/>
<path d="M89.3579 136.802L91.2434 136.801L92.1404 129.584L89.3575 129.585L89.3579 136.802Z" fill="#FFB7B7"/>
<path d="M89.0307 136.191L92.744 136.191H92.7441C93.3717 136.191 93.9736 136.438 94.4174 136.878C94.8612 137.319 95.1105 137.916 95.1105 138.539V138.615L89.0308 138.615L89.0307 136.191Z" fill="#2F2E41"/>
<path d="M80.7253 86.7485L81.3405 85.5276L86.5696 88.1221L86.4158 89.1904L87.4155 90.4877C87.4155 90.4877 89.1073 91.4034 88.7997 94.4558L88.4921 97.3556L88.1076 101.095L90.799 110.328L92.1832 122.538L93.1829 132.382L88.3383 132.153L83.8781 116.128L76.0344 133.374L70.6515 132L78.0338 114.907L78.9566 107.734C78.9566 107.734 78.3414 103.918 81.2636 101.324L80.8022 99.9501V98.2575L79.2642 90.1825L80.7253 86.7485Z" fill="#2F2E41"/>
<path opacity="0.2" d="M80.5815 104.199L80.4076 104.248L83.7911 116.152L83.9651 116.103L80.5815 104.199Z" fill="black"/>
<path d="M80.8791 101.858H88.4152V101.095H80.8791V101.858Z" fill="#3F3D56"/>
<path d="M88.4152 102.316C88.5851 102.316 88.7228 101.974 88.7228 101.553C88.7228 101.131 88.5851 100.789 88.4152 100.789C88.2453 100.789 88.1076 101.131 88.1076 101.553C88.1076 101.974 88.2453 102.316 88.4152 102.316Z" fill="#3F3D56"/>
<path d="M88.6139 83.1564C89.6999 81.185 88.9697 78.7132 86.9831 77.6355C84.9964 76.5579 82.5055 77.2824 81.4195 79.2538C80.3335 81.2252 81.0636 83.697 83.0503 84.7747C85.0369 85.8524 87.5278 85.1279 88.6139 83.1564Z" fill="#FFB7B7"/>
<path d="M78.7434 79.7529C80.7464 79.7529 82.3701 78.1415 82.3701 76.1539C82.3701 74.1663 80.7464 72.555 78.7434 72.555C76.7404 72.555 75.1166 74.1663 75.1166 76.1539C75.1166 78.1415 76.7404 79.7529 78.7434 79.7529Z" fill="#2F2E41"/>
<path d="M74.141 75.7684C73.9979 76.2453 73.9561 76.7464 74.018 77.2401C74.08 77.7338 74.2444 78.2094 74.501 78.6369C74.7575 79.0643 75.1006 79.4344 75.5085 79.7236C75.9164 80.0129 76.3804 80.2151 76.871 80.3175C77.3616 80.4198 77.8684 80.4201 78.3591 80.3183C78.8499 80.2165 79.3141 80.0149 79.7223 79.7261C80.1306 79.4373 80.4741 79.0677 80.7312 78.6405C80.9882 78.2134 81.1532 77.738 81.2158 77.2443C80.9559 78.1101 80.3775 78.8473 79.5953 79.3095C78.8131 79.7716 77.8844 79.925 76.9935 79.7392C76.1026 79.5533 75.3148 79.0418 74.7863 78.3062C74.2579 77.5706 74.0275 76.6648 74.141 75.7684Z" fill="#2F2E41"/>
<path d="M88.4688 80.0757C88.5752 81.006 88.3695 81.9451 87.8835 82.7476C87.3974 83.5501 86.6583 84.1711 85.7805 84.5144C84.9028 84.8577 83.9354 84.9041 83.0283 84.6465C82.1212 84.3889 81.3251 83.8416 80.7633 83.0895C80.2015 82.3373 79.9053 81.4223 79.9207 80.4861C79.9361 79.55 80.2623 78.6451 80.8486 77.9115C81.4348 77.178 82.2486 76.6568 83.1636 76.4287C84.0787 76.2006 85.044 76.2784 85.91 76.65C86.6262 76.0769 87.5142 76.2545 88.2361 76.8594C89.0525 77.5434 89.2947 78.0133 89.9279 79.1381C89.3053 79.2248 89.0914 79.9889 88.4688 80.0757Z" fill="#2F2E41"/>
<path d="M73.3995 92.3098C73.4454 93.5154 73.5363 95.8885 73.5363 96.0096C73.5363 96.1372 75.3493 99.8623 76.1325 101.465V101.466C76.1882 101.579 76.2382 101.682 76.2824 101.772C76.343 101.896 76.4383 102.001 76.5569 102.073C76.6755 102.146 76.8126 102.183 76.9518 102.18L80.3746 102.119C80.5627 102.116 80.7423 102.041 80.8759 101.909C81.0095 101.778 81.0867 101.6 81.0914 101.413L81.4732 86.4703C81.4744 86.421 81.4658 86.372 81.4476 86.3261C81.4295 86.2802 81.4023 86.2384 81.3677 86.2031C81.333 86.1678 81.2916 86.1397 81.2458 86.1205C81.2001 86.1014 81.1509 86.0915 81.1012 86.0914H76.6871C76.5007 86.0915 76.318 86.1437 76.1601 86.2421C76.0022 86.3404 75.8753 86.4809 75.7942 86.6475L73.6756 90.9969C73.477 91.4056 73.3822 91.8563 73.3995 92.3098V92.3098Z" fill="#50C2A0"/>
<path d="M81.1509 100.388C82.0292 99.8598 82.8184 99.1979 83.4897 98.4266C85.0493 96.686 85.9978 94.4903 86.1928 92.1692C86.3668 90.1832 85.9697 88.7071 85.0125 87.7816C83.7958 86.6052 82.1397 86.7761 82.0698 86.784L81.9957 86.7924L80.8737 87.7345L81.1912 88.1068L82.1951 87.2638C82.5024 87.2486 83.757 87.2453 84.6734 88.1348C85.517 88.9536 85.8634 90.2968 85.703 92.1269C85.5175 94.3369 84.6167 96.428 83.1351 98.0882C82.4959 98.8219 81.7467 99.4535 80.9137 99.9607L81.1509 100.388Z" fill="#50C2A0"/>
<path d="M74.7816 94.7108L74.7487 94.8701L80.7293 96.089L80.7622 95.9297L74.7816 94.7108Z" fill="#3F3D56"/>
<path d="M78.7234 86.0881L78.335 95.5314L78.4987 95.538L78.8872 86.0948L78.7234 86.0881Z" fill="#3F3D56"/>
<path d="M73.3995 92.3098C73.4454 93.5154 73.5363 95.8885 73.5363 96.0096C73.5363 96.1372 75.3493 99.8623 76.1325 101.465L74.6726 93.0537C74.6162 92.73 74.4741 92.4271 74.2609 92.1758C74.0477 91.9246 73.7711 91.734 73.4593 91.6237C73.4103 91.849 73.3902 92.0795 73.3995 92.3098Z" fill="#3F3D56"/>
<path d="M82.369 109.939C82.2398 109.773 82.1486 109.582 82.1019 109.378C82.0553 109.174 82.0543 108.962 82.099 108.758C82.1437 108.553 82.2331 108.361 82.3608 108.194C82.4885 108.028 82.6514 107.891 82.8381 107.794L82.5414 104.537L84.492 103.875L84.8459 108.481C84.9897 108.803 85.0095 109.166 84.9015 109.502C84.7935 109.837 84.5653 110.122 84.26 110.301C83.9546 110.481 83.5935 110.543 83.245 110.476C82.8965 110.41 82.5848 110.218 82.369 109.939Z" fill="#FFB7B7"/>
<path d="M81.0924 90.281C81.0543 89.7864 81.1832 89.2933 81.4588 88.8794C81.7344 88.4656 82.141 88.1546 82.6145 87.9956C83.032 87.8587 83.4828 87.8591 83.9001 87.9967C84.3465 88.1477 84.7339 88.4341 85.0074 88.8154C85.281 89.1967 85.4268 89.6537 85.4243 90.1218L85.5706 106.663L82.1142 106.787L81.0924 90.281Z" fill="#CBCBCB"/>
</g>
<defs>
<clipPath id="clip0_1_17">
<rect width="147" height="142" fill="white"/>
</clipPath>
</defs>
</svg>
